<svg width="22" height="26" viewBox="0 0 22 26" fill="none" xmlns="http://www.w3.org/2000/svg">
<path fill-rule="evenodd" clip-rule="evenodd" d="M7.3064 10.5863C7.3064 8.8148 8.74712 7.37354 10.5189 7.37354C12.2906 7.37354 13.7313 8.8148 13.7313 10.5863C13.7313 12.358 12.2903 13.799 10.5189 13.799C8.74739 13.799 7.3064 12.358 7.3064 10.5863ZM8.99633 10.5865C8.99633 11.4262 9.67916 12.1093 10.5189 12.1093C11.3586 12.1093 12.0414 11.4262 12.0414 10.5865C12.0414 9.74684 11.3586 9.06374 10.5189 9.06374C9.67916 9.06374 8.99633 9.74684 8.99633 10.5865Z" fill="#231F20"/>
<path fill-rule="evenodd" clip-rule="evenodd" d="M0 10.5862C0 4.78552 4.71879 0.065918 10.5189 0.065918C16.3185 0.065918 21.0376 4.78552 21.0379 10.5865C21.0379 12.1282 20.7058 13.6205 20.0672 14.9923C19.7716 15.5728 19.2918 16.3969 18.5882 17.2768L17.4963 18.4418L10.5192 25.8539L3.56967 18.4713C3.5318 18.4379 3.49597 18.402 3.46012 18.3661C3.43079 18.3368 3.40145 18.3074 3.37095 18.2793C1.67616 16.5486 0.87318 14.7661 0.675 14.2828C0.23166 13.1112 0 11.8663 0 10.5862ZM10.5189 23.3882L17.5378 15.9252C18.7218 14.3711 19.3474 12.5251 19.3471 10.5865C19.3471 5.71756 15.3862 1.75639 10.5187 1.75639C5.65029 1.75639 1.68966 5.71783 1.68966 10.5865C1.68966 12.5251 2.31525 14.3711 3.49947 15.9254L3.58236 16.0343C3.92256 16.4671 4.30245 16.868 4.71312 17.2266L4.77198 17.2835L10.5189 23.3882Z" fill="#231F20"/>
</svg>
